<svg id="svg" version="1.1" xmlns="http://www.w3.org/2000/svg" xmlns:xlink="http://www.w3.org/1999/xlink" width="400" height="150.42735042735043" viewBox="0, 0, 400,150.42735042735043"><g id="svgg"><path id="path0" d="M274.644 30.505 C 245.397 32.472,205.736 44.385,180.128 58.895 C 174.396 62.143,175.328 61.824,184.473 57.409 C 208.185 45.959,232.975 38.709,260.433 35.195 C 269.263 34.065,296.549 33.873,304.533 34.884 C 325.305 37.515,342.004 45.366,348.636 55.618 C 352.055 60.904,352.238 69.857,349.077 77.182 C 347.347 81.189,347.298 81.755,348.486 84.043 C 349.933 86.834,350.926 86.508,353.693 82.336 C 368.984 59.281,356.643 39.715,322.365 32.668 C 311.841 30.504,289.623 29.497,274.644 30.505 M60.256 52.895 C 56.238 53.377,49.732 56.200,45.716 59.204 C 27.345 72.946,28.281 100.803,47.521 112.920 C 53.814 116.884,56.785 117.733,64.387 117.741 C 75.754 117.754,83.682 114.126,90.648 105.725 C 94.805 100.712,94.835 100.008,90.908 99.784 C 87.530 99.591,86.375 100.028,83.675 102.522 C 77.004 108.684,70.604 111.258,63.274 110.728 C 42.249 109.209,32.213 83.214,46.866 68.230 C 53.489 61.458,60.867 59.152,70.527 60.837 C 74.929 61.604,77.579 63.086,82.824 67.711 C 86.234 70.719,87.629 71.212,91.537 70.793 C 94.680 70.457,94.584 69.933,90.487 65.016 C 82.888 55.898,71.908 51.496,60.256 52.895 M320.954 54.513 C 320.407 54.913,322.132 58.334,334.482 81.339 C 336.248 84.630,341.080 93.668,345.219 101.425 C 349.357 109.181,352.854 115.639,352.988 115.776 C 353.550 116.348,361.254 116.510,361.254 115.950 C 361.254 115.623,355.118 103.942,340.958 77.312 L 328.632 54.131 325.054 54.131 C 322.512 54.131,321.325 54.242,320.954 54.513 M150.142 85.755 L 150.142 116.524 153.989 116.524 L 157.835 116.524 157.835 85.755 L 157.835 54.986 153.989 54.986 L 150.142 54.986 150.142 85.755 M163.248 85.328 L 163.248 115.670 166.667 115.670 L 170.085 115.670 170.085 85.328 L 170.085 54.986 166.667 54.986 L 163.248 54.986 163.248 85.328 M220.228 85.755 L 220.228 116.524 223.932 116.524 L 227.635 116.524 227.635 85.755 L 227.635 54.986 223.932 54.986 L 220.228 54.986 220.228 85.755 M117.350 69.944 C 94.926 74.413,90.910 105.356,111.422 115.622 C 116.639 118.233,127.236 118.471,131.990 116.083 C 139.632 112.244,145.163 104.686,146.313 96.510 L 146.503 95.157 142.798 95.157 L 139.093 95.157 138.608 97.136 C 135.603 109.399,122.815 114.411,112.070 107.538 C 108.936 105.533,107.955 106.876,125.306 89.408 L 138.515 76.109 136.766 74.751 C 131.545 70.696,123.531 68.712,117.350 69.944 M251.521 69.822 C 238.932 71.670,229.173 86.893,232.563 99.396 C 237.059 115.978,256.147 123.033,270.390 113.375 C 272.722 111.794,273.039 111.808,273.235 113.497 C 273.461 115.447,273.876 115.670,277.280 115.670 L 280.092 115.670 279.990 101.923 C 279.876 86.579,279.939 87.117,277.752 82.906 C 272.664 73.110,262.763 68.172,251.521 69.822 M175.310 71.955 C 175.027 72.694,175.445 98.604,175.765 100.142 C 176.765 104.949,182.016 111.544,186.610 113.762 C 198.499 119.502,212.990 111.769,214.798 98.719 C 215.093 96.586,215.651 80.940,215.664 74.430 L 215.670 71.510 211.823 71.510 L 207.977 71.510 207.975 82.550 C 207.972 95.661,207.780 97.899,206.411 100.796 C 202.109 109.900,191.398 110.828,185.146 102.637 C 183.051 99.893,183.103 100.312,182.978 85.114 L 182.867 71.510 179.174 71.510 C 176.087 71.510,175.453 71.583,175.310 71.955 M285.470 93.581 L 285.470 115.670 289.316 115.670 L 293.162 115.670 293.165 104.772 C 293.167 92.898,293.329 91.035,294.581 88.454 C 296.651 84.190,302.320 79.726,306.175 79.324 C 309.921 78.934,310.541 78.270,310.541 74.653 C 310.541 71.793,310.081 71.370,307.251 71.626 C 303.123 72.000,300.291 73.064,295.930 75.878 C 294.554 76.766,293.372 77.493,293.305 77.493 C 293.237 77.493,293.146 76.179,293.101 74.573 L 293.020 71.652 289.245 71.573 L 285.470 71.493 285.470 93.581 M124.905 77.096 C 126.046 77.534,123.729 80.204,112.818 91.026 L 105.349 98.433 105.511 94.729 C 105.886 86.163,108.195 82.189,114.611 79.068 C 118.169 77.337,123.081 76.396,124.905 77.096 M261.517 77.781 C 269.371 80.411,274.512 89.672,272.483 97.537 C 268.559 112.748,247.658 114.848,240.895 100.712 C 234.696 87.754,247.797 73.187,261.517 77.781 M334.330 95.626 C 302.366 122.002,247.464 138.414,198.548 136.215 C 180.255 135.393,169.794 133.129,158.147 127.472 C 152.960 124.952,151.790 124.594,154.589 126.385 C 160.569 130.210,173.101 134.453,184.751 136.596 C 195.404 138.556,224.214 138.562,237.214 136.607 C 274.775 130.959,305.820 119.959,330.769 103.460 C 336.456 99.699,338.177 98.256,338.177 97.248 C 338.177 96.686,336.906 93.716,336.676 93.739 C 336.640 93.742,335.584 94.592,334.330 95.626 " stroke="none" fill="#000000" fill-rule="evenodd"></path></g></svg>